<?xml version="1.0" encoding="UTF-8"?>
<svg version="1.1" xmlns="http://www.w3.org/2000/svg" width="797" height="790">
<path d="M0 0 C0.95892299 -0.00205263 1.91784599 -0.00410527 2.90582725 -0.0062201 C6.1138266 -0.01186721 9.32178269 -0.01043568 12.52978611 -0.00901413 C14.85523784 -0.01159908 17.18068914 -0.0146126 19.50613981 -0.01801753 C25.89294603 -0.02607555 32.27974101 -0.02787644 38.66655171 -0.028615 C44.84862206 -0.02979412 51.03068764 -0.03659684 57.21275469 -0.04269341 C73.77010541 -0.05873253 90.32745519 -0.06465438 106.88481229 -0.06944216 C114.72206825 -0.07178026 122.55932348 -0.07538316 130.39657888 -0.07913754 C157.23977008 -0.09197138 184.08296088 -0.10269056 210.92615509 -0.10614014 C212.61035322 -0.10636177 214.29455136 -0.10658355 215.97874949 -0.10680549 C217.6669459 -0.10702613 219.35514231 -0.10724661 221.04333872 -0.10746694 C224.42998024 -0.10790948 227.81662176 -0.1083566 231.20326328 -0.10880661 C232.04294976 -0.108916 232.88263625 -0.10902539 233.74776777 -0.1091381 C260.96533891 -0.1127675 288.1828834 -0.12868402 315.40044433 -0.15199697 C344.19624942 -0.17661653 372.99203929 -0.19031397 401.78785521 -0.19150805 C404.95152255 -0.1916795 408.11518989 -0.19189493 411.27885723 -0.19214249 C412.05780514 -0.19219826 412.83675304 -0.19225402 413.63930543 -0.19231148 C426.15175191 -0.19346009 438.66417096 -0.20446585 451.17660819 -0.21902954 C463.76360207 -0.23342619 476.35056093 -0.23661368 488.93756079 -0.22858956 C495.75086068 -0.22453764 502.56406317 -0.22558568 509.37735271 -0.23964691 C515.62316649 -0.25241877 521.86881949 -0.25115937 528.11463315 -0.2390562 C530.36568045 -0.2371049 532.61673928 -0.24015117 534.86777043 -0.24890056 C568.86156813 -0.37258883 595.9274948 7.49641545 620.61122227 31.56111526 C637.82701272 49.73002907 647.29961858 73.96268301 647.25046253 98.91523361 C647.25354148 100.3742978 647.25354148 100.3742978 647.25668263 101.86283803 C647.2623474 105.12974883 647.26089602 108.39661741 647.25947666 111.66353226 C647.2620606 114.02651916 647.26507384 116.38950562 647.26848006 118.75249147 C647.27570364 124.57054131 647.27825253 130.38858263 647.27880912 136.20663589 C647.27972391 143.17650765 647.28639491 150.14637095 647.29315594 157.11623906 C647.30920671 173.96156427 647.31511825 190.80688855 647.31990469 207.65222003 C647.32224164 215.62354987 647.32584441 223.594879 647.32960007 231.56620828 C647.34243497 258.8608329 647.35315404 286.15545712 647.35660267 313.45008469 C647.3568243 315.16310446 647.35704608 316.87612424 647.35726802 318.58914402 C647.35748866 320.3062668 647.35770914 322.02338959 647.35792947 323.74051237 C647.35837202 327.18527063 647.35881913 330.63002888 647.35926914 334.07478714 C647.35937853 334.92888526 647.35948792 335.78298337 647.35960063 336.66296325 C647.36323052 364.3513859 647.3791483 392.03978235 647.40245951 419.72819497 C647.42706882 449.01209023 647.44077603 478.29597052 647.44197059 507.57987642 C647.44214204 510.7960399 647.44235746 514.01220338 647.44260502 517.22836685 C647.44266079 518.02025838 647.44271656 518.81214991 647.44277401 519.62803815 C647.44392352 532.35876776 647.45493699 545.08947045 647.46949207 557.82019097 C647.48387557 570.62245672 647.48708361 583.42468803 647.4790521 596.22695965 C647.47499514 603.15936006 647.47567432 610.09167803 647.49010944 617.02406693 C647.50285277 623.37527681 647.50164681 629.72632839 647.48951873 636.07753807 C647.48756251 638.37031422 647.49063667 640.66310161 647.49936309 642.95586199 C647.61561004 675.57386799 638.54754828 701.19928372 615.58387852 724.72908401 C592.87335605 746.25792076 565.06066771 751.446581 535.10627842 751.39212418 C532.7520626 751.39514688 530.39784776 751.39903696 528.04363465 751.40371674 C522.26664245 751.41291485 516.48970277 751.41285323 510.71270588 751.40880512 C503.78791046 751.40446773 496.86313918 751.41174703 489.93834825 751.4192964 C475.5827252 751.43451723 461.22711982 751.43624343 446.87149039 751.43377338 C435.78352419 751.43193892 424.69556378 751.43370352 413.6075983 751.43799782 C412.01316818 751.43860023 410.41873806 751.43920142 408.82430793 751.43980142 C406.42148541 751.4407087 404.01866288 751.44161737 401.61584035 751.44253377 C379.28222243 751.45096052 356.94860667 751.45530094 334.61498737 751.45112705 C333.77346985 751.45097068 332.93195233 751.4508143 332.06493428 751.45065319 C327.80004195 751.44984743 323.53514964 751.44900166 319.27025732 751.44813988 C318.42327601 751.4479688 317.5762947 751.44779771 316.70364728 751.44762144 C314.99084613 751.44727478 313.27804497 751.44692625 311.56524381 751.44657585 C284.91828474 751.4412195 258.27135876 751.44914775 231.62440586 751.46760941 C201.66767429 751.48833998 171.71096321 751.49905008 141.75422406 751.49503392 C138.55806081 751.49463859 135.36189755 751.49427704 132.16573429 751.49393654 C130.98532106 751.49380044 130.98532106 751.49380044 129.7810611 751.49366159 C117.91763359 751.49249715 106.05422682 751.49913228 94.19080448 751.50974846 C80.69317057 751.52181492 67.19558226 751.5233428 53.69794765 751.51095829 C46.81399718 751.50492419 39.9301279 751.50357234 33.04618359 751.51596069 C26.73829322 751.52682289 20.43056629 751.52371185 14.12268355 751.50969901 C11.84686423 751.50705304 9.57103208 751.50941542 7.29522535 751.51743487 C-8.60930014 751.56956665 -23.54854386 750.7344983 -38.56846523 744.94392776 C-39.36462246 744.64132034 -40.16077969 744.33871292 -40.98106289 744.02693558 C-62.60442696 735.4997805 -79.56977501 719.1896189 -90.88096523 699.13142776 C-91.42752773 698.18654495 -91.97409023 697.24166214 -92.53721523 696.26814651 C-99.86026045 682.76161159 -103.04036672 667.59987434 -103.01518631 652.33759117 C-103.01753854 651.36379253 -103.01989077 650.38999389 -103.02231428 649.38668621 C-103.02898351 646.11605212 -103.02854668 642.84545796 -103.02813625 639.57481766 C-103.03143617 637.20913122 -103.03516201 634.84344535 -103.03927773 632.4777602 C-103.04824108 626.65296894 -103.05252306 620.82818483 -103.0547967 615.00338814 C-103.05776299 608.02534913 -103.06646293 601.04732016 -103.07521098 594.06928643 C-103.09603946 577.20336561 -103.10652287 560.33744307 -103.11534059 543.47151239 C-103.11954958 535.48955639 -103.12477125 527.50760114 -103.13002512 519.52564577 C-103.14791439 492.19218016 -103.16290933 464.85871434 -103.17034531 437.52524376 C-103.17082006 435.8097346 -103.17129595 434.09422544 -103.17177297 432.37871628 C-103.17200934 431.52799487 -103.17224572 430.67727347 -103.17248926 429.80077262 C-103.17369043 425.4907436 -103.17490589 421.18071459 -103.17613125 416.87068558 C-103.1763714 416.01535414 -103.17661155 415.1600227 -103.17685898 414.27877212 C-103.18474939 386.55581879 -103.20817637 358.83290828 -103.24068719 331.10997365 C-103.27501182 301.78671057 -103.2946989 272.46347254 -103.29798955 243.14018905 C-103.29840707 239.91893441 -103.29888663 236.69767979 -103.29941273 233.47642517 C-103.29953592 232.68328534 -103.29965911 231.89014551 -103.29978604 231.07297113 C-103.30211481 218.32774864 -103.3177567 205.58257602 -103.33825457 192.83737128 C-103.35854539 180.01714161 -103.36397451 167.1969716 -103.35448394 154.37672885 C-103.34973807 147.43595419 -103.35129343 140.4953267 -103.37124538 133.55457497 C-103.38888993 127.19335234 -103.3878684 120.83240869 -103.37234809 114.47118305 C-103.36997403 112.17702354 -103.37428493 109.88284465 -103.38617674 107.58871473 C-103.54063243 75.80825269 -94.01718704 49.87244775 -71.67002773 26.85408401 C-52.23025128 8.6067102 -26.32224263 -0.05306849 0 0 Z " fill="#000000" transform="translate(125.88096523284912,17.868572235107422)"/>
<path d="M0 0 C0.66865082 0.00021149 1.33730164 0.00042297 2.0262146 0.00064087 C14.03513756 0.03824171 25.25389088 1.3956023 36.875 4.375 C37.64553711 4.56223633 38.41607422 4.74947266 39.20996094 4.94238281 C83.69459033 15.81473419 121.64919637 43.90591515 145.72265625 82.80078125 C155.10451359 98.27135858 161.95120148 114.59699886 166.75 132.0625 C166.94102295 132.73635742 167.1320459 133.41021484 167.32885742 134.10449219 C170.98168523 148.31821673 171.32159709 163.40066236 171.3125 178 C171.3125705 178.82505035 171.31264099 179.65010071 171.31271362 180.50015259 C171.26653102 194.65196682 169.91812682 207.75171844 165.875 221.375 C165.56916992 222.43654297 165.26333984 223.49808594 164.94824219 224.59179688 C157.704163 249.25462632 146.66180849 271.74388403 132.875 293.375 C132.19050781 294.45394531 131.50601562 295.53289062 130.80078125 296.64453125 C128.8762719 299.59383175 126.89505838 302.49024036 124.875 305.375 C124.41544922 306.03145508 123.95589844 306.68791016 123.48242188 307.36425781 C116.15236931 317.78828531 108.45619044 327.82556468 100.31933594 337.63085938 C98.27930967 340.09433937 96.26640211 342.57967035 94.25 345.0625 C90.53704127 349.59829391 86.75578188 354.0730408 82.96044922 358.53979492 C79.30850449 362.84419153 75.72904314 367.20349027 72.17578125 371.58984375 C70.14100756 374.05299085 68.04983385 376.45526378 65.94091797 378.85473633 C41.61017277 406.79243047 22.66676343 444.69811911 15.82421875 481.046875 C14.58345216 485.39721713 12.6656051 488.03683902 9.05078125 490.73828125 C3.99419834 493.31427632 -0.47201885 494.49967688 -6.125 493.375 C-12.22736815 490.93405274 -15.38664558 487.33044212 -18.125 481.375 C-19.14453125 477.89453125 -19.14453125 477.89453125 -19.9375 474.1875 C-29.25805744 433.98340591 -50.80300902 398.95606655 -77.57519531 368.15869141 C-84.16299294 360.57670504 -90.73404113 352.99106146 -96.953125 345.1015625 C-98.63163995 342.99436208 -100.32881767 340.91055207 -102.046875 338.8359375 C-114.00339772 324.36330539 -125.02492175 309.20153053 -135.125 293.375 C-135.81045898 292.30620605 -135.81045898 292.30620605 -136.50976562 291.21582031 C-150.77197842 268.78033672 -161.93606361 244.99575126 -169.125 219.375 C-169.37636719 218.49763184 -169.62773437 217.62026367 -169.88671875 216.71630859 C-173.47988782 203.49895042 -173.47682852 190.09908269 -173.5 176.5 C-173.50226593 175.62422302 -173.50453186 174.74844604 -173.50686646 173.84613037 C-173.50198431 157.1800484 -172.1222039 141.36685914 -167.125 125.375 C-166.91891113 124.71419434 -166.71282227 124.05338867 -166.50048828 123.37255859 C-158.56771871 98.48252992 -146.09022271 75.43539331 -128.125 56.375 C-127.57585937 55.78879883 -127.02671875 55.20259766 -126.4609375 54.59863281 C-108.19460397 35.27927435 -87.35188807 22.11831314 -63.125 11.375 C-62.13242187 10.93285156 -61.13984375 10.49070313 -60.1171875 10.03515625 C-54.06692407 7.61310546 -47.70695701 6.23083068 -41.375 4.75 C-40.49400635 4.54334717 -39.6130127 4.33669434 -38.70532227 4.1237793 C-25.87961842 1.26107568 -13.13323915 -0.01748767 0 0 Z " fill="#FEFEFE" transform="translate(394.125,149.625)"/>
<path d="M0 0 C14.4572932 11.77271916 25.30431088 26.99652503 28.01269531 45.75976562 C29.76524333 66.67906898 24.78657312 86.01437555 11.04394531 102.32617188 C-0.77317862 114.87109274 -17.21264928 123.33164946 -34.60839844 123.99804688 C-36.27756284 124.01729697 -37.94697251 124.02087563 -39.61621094 124.00976562 C-40.49462646 124.00485107 -41.37304199 123.99993652 -42.27807617 123.99487305 C-48.82470372 123.87676847 -54.62011411 123.13981869 -60.74121094 120.69726562 C-61.64871094 120.34535156 -62.55621094 119.9934375 -63.49121094 119.63085938 C-78.23496898 113.42619453 -90.43971407 103.01606936 -97.74121094 88.69726562 C-98.19238281 87.82199219 -98.64355469 86.94671875 -99.10839844 86.04492188 C-106.79898158 70.1859383 -108.75793791 51.86914543 -103.05371094 34.99414062 C-98.29203657 23.03326811 -92.85885604 14.60225428 -83.74121094 5.69726562 C-82.75507813 4.68019531 -82.75507813 4.68019531 -81.74902344 3.64257812 C-60.8311757 -16.55706025 -22.80495748 -17.0621499 0 0 Z " fill="#000000" transform="translate(431.7412109375,265.302734375)"/>
</svg>
