<svg width="151" height="16" viewBox="0 0 151 16" fill="none" xmlns="http://www.w3.org/2000/svg">
<path d="M145.626 9.7256V7.22373H151V12.3505C149.971 13.0997 149.06 13.611 148.267 13.8844C147.479 14.1524 146.542 14.2864 145.457 14.2864C144.121 14.2864 143.031 14.043 142.186 13.5563C141.347 13.0696 140.694 12.345 140.229 11.3826C139.768 10.4201 139.538 9.31546 139.538 8.06863C139.538 6.75617 139.791 5.61597 140.298 4.64804C140.805 3.67463 141.547 2.93638 142.524 2.43327C143.287 2.045 144.313 1.85087 145.603 1.85087C146.847 1.85087 147.776 1.97118 148.39 2.21179C149.009 2.45241 149.521 2.82701 149.925 3.33558C150.335 3.83869 150.642 4.47851 150.846 5.25505L147.491 5.89487C147.353 5.44098 147.118 5.09373 146.785 4.85311C146.458 4.61249 146.038 4.49218 145.526 4.49218C144.763 4.49218 144.154 4.77655 143.699 5.34528C143.248 5.90854 143.023 6.80265 143.023 8.02761C143.023 9.32913 143.251 10.2588 143.707 10.8166C144.167 11.3744 144.807 11.6533 145.626 11.6533C146.015 11.6533 146.386 11.5931 146.739 11.4728C147.092 11.3525 147.497 11.1474 147.952 10.8576V9.7256H145.626Z" fill="black"/>
<path d="M127.208 2.056H130.455L134.693 8.7085V2.056H137.971V14.0814H134.693L130.478 7.47808V14.0814H127.208V2.056Z" fill="black"/>
<path d="M121.511 2.056H124.996V14.0814H121.511V2.056Z" fill="black"/>
<path d="M111.2 2.056H114.678V11.1201H120.106V14.0814H111.2V2.056Z" fill="black"/>
<path d="M106.202 12.0963H102.24L101.695 14.0814H98.1405L102.371 2.056H106.163L110.394 14.0814H106.754L106.202 12.0963ZM105.472 9.49598L104.229 5.17308L102.993 9.49598H105.472Z" fill="black"/>
<path d="M94.8467 9.16781L97.8946 10.1521C97.6898 11.0654 97.3674 11.8283 96.9272 12.4407C96.4871 13.0532 95.9394 13.5153 95.2843 13.827C94.6343 14.1387 93.8051 14.2946 92.7968 14.2946C91.5736 14.2946 90.573 14.1059 89.795 13.7286C89.0222 13.3458 88.3542 12.6759 87.7912 11.7189C87.2282 10.7619 86.9467 9.53693 86.9467 8.04402C86.9467 6.05346 87.4406 4.525 88.4284 3.45863C89.4214 2.38679 90.8238 1.85087 92.6356 1.85087C94.0533 1.85087 95.1666 2.15711 95.9752 2.76959C96.789 3.38207 97.393 4.32266 97.7871 5.59137L94.7162 6.32142C94.6087 5.95503 94.4961 5.68707 94.3784 5.51754C94.1839 5.23317 93.9459 5.01443 93.6644 4.86131C93.3829 4.70819 93.0681 4.63163 92.7201 4.63163C91.9319 4.63163 91.3279 4.97068 90.9082 5.64879C90.5909 6.15189 90.4322 6.9421 90.4322 8.01941C90.4322 9.35374 90.6216 10.2697 91.0003 10.7674C91.3791 11.2595 91.9114 11.5056 92.5972 11.5056C93.2626 11.5056 93.7642 11.306 94.102 10.9068C94.4449 10.5076 94.6931 9.92794 94.8467 9.16781Z" fill="black"/>
<path d="M75.6992 10.1029L79.0081 9.88145C79.0797 10.4557 79.2256 10.8931 79.4457 11.1939C79.804 11.6806 80.3158 11.924 80.9811 11.924C81.4776 11.924 81.8589 11.8009 82.1251 11.5548C82.3963 11.3033 82.532 11.0134 82.532 10.6853C82.532 10.3736 82.404 10.0947 82.1481 9.84864C81.8922 9.60256 81.2985 9.37014 80.367 9.1514C78.8417 8.78501 77.7541 8.29831 77.1041 7.69129C76.449 7.08428 76.1214 6.31048 76.1214 5.36989C76.1214 4.75194 76.2878 4.16954 76.6204 3.62268C76.9582 3.07036 77.4624 2.63834 78.1329 2.32663C78.8085 2.00946 79.7323 1.85087 80.9044 1.85087C82.3426 1.85087 83.4379 2.13797 84.1903 2.71217C84.9477 3.2809 85.3982 4.18868 85.5415 5.43551L82.2633 5.64058C82.1762 5.0992 81.992 4.70546 81.7105 4.45937C81.4341 4.21329 81.0502 4.09025 80.5589 4.09025C80.1546 4.09025 79.85 4.18321 79.6453 4.36914C79.4406 4.5496 79.3382 4.77108 79.3382 5.03357C79.3382 5.22497 79.4227 5.39723 79.5916 5.55035C79.7553 5.70894 80.1443 5.85659 80.7585 5.99331C82.2786 6.34329 83.3662 6.69875 84.0214 7.05968C84.6816 7.41513 85.1602 7.85809 85.457 8.38854C85.759 8.91899 85.91 9.51233 85.91 10.1686C85.91 10.9396 85.7104 11.6505 85.3111 12.3013C84.9119 12.9521 84.354 13.447 83.6375 13.786C82.9209 14.1196 82.0176 14.2864 80.9274 14.2864C79.0132 14.2864 77.6876 13.8926 76.9506 13.1052C76.2135 12.3177 75.7964 11.317 75.6992 10.1029Z" fill="black"/>
<path d="M66.1329 2.056H69.6107V11.1201H75.0386V14.0814H66.1329V2.056Z" fill="black"/>
<path d="M61.1347 12.0963H57.1732L56.6281 14.0814H53.0735L57.3037 2.056H61.0963L65.3265 14.0814H61.6875L61.1347 12.0963ZM60.4053 9.49598L59.1616 5.17308L57.9256 9.49598H60.4053Z" fill="black"/>
<path d="M49.7797 9.16781L52.8275 10.1521C52.6228 11.0654 52.3004 11.8283 51.8602 12.4407C51.42 13.0532 50.8724 13.5153 50.2173 13.827C49.5672 14.1387 48.7381 14.2946 47.7298 14.2946C46.5066 14.2946 45.506 14.1059 44.728 13.7286C43.9551 13.3458 43.2872 12.6759 42.7242 11.7189C42.1612 10.7619 41.8797 9.53693 41.8797 8.04402C41.8797 6.05346 42.3736 4.525 43.3614 3.45863C44.3544 2.38679 45.7567 1.85087 47.5686 1.85087C48.9863 1.85087 50.0995 2.15711 50.9082 2.76959C51.722 3.38207 52.326 4.32266 52.7201 5.59137L49.6491 6.32142C49.5417 5.95503 49.4291 5.68707 49.3113 5.51754C49.1168 5.23317 48.8788 5.01443 48.5973 4.86131C48.3158 4.70819 48.0011 4.63163 47.653 4.63163C46.8648 4.63163 46.2609 4.97068 45.8412 5.64879C45.5239 6.15189 45.3652 6.9421 45.3652 8.01941C45.3652 9.35374 45.5546 10.2697 45.9333 10.7674C46.3121 11.2595 46.8444 11.5056 47.5302 11.5056C48.1956 11.5056 48.6972 11.306 49.035 10.9068C49.3779 10.5076 49.6261 9.92794 49.7797 9.16781Z" fill="black"/>
<path d="M29.066 8.07683C29.066 6.11361 29.5778 4.58515 30.6014 3.49144C31.6251 2.39772 33.0505 1.85087 34.8777 1.85087C36.751 1.85087 38.1943 2.38952 39.2077 3.46683C40.2211 4.53867 40.7278 6.04252 40.7278 7.97839C40.7278 9.38381 40.5052 10.5377 40.0599 11.44C39.6197 12.3368 38.9799 13.0368 38.1406 13.5399C37.3063 14.0376 36.2647 14.2864 35.0159 14.2864C33.7466 14.2864 32.6948 14.0704 31.8605 13.6384C31.0314 13.2063 30.3583 12.5228 29.8414 11.5876C29.3244 10.6525 29.066 9.48225 29.066 8.07683ZM32.5438 8.09323C32.5438 9.30726 32.7536 10.1795 33.1733 10.7099C33.5981 11.2404 34.1739 11.5056 34.9007 11.5056C35.648 11.5056 36.2263 11.2459 36.6358 10.7263C37.0453 10.2068 37.25 9.27444 37.25 7.92918C37.25 6.79718 37.035 5.97143 36.6051 5.45192C36.1803 4.92694 35.6019 4.66444 34.87 4.66444C34.1688 4.66444 33.6058 4.92967 33.181 5.46012C32.7562 5.99057 32.5438 6.86828 32.5438 8.09323Z" fill="black"/>
<path d="M19.3308 2.056H22.8087V11.1201H28.2365V14.0814H19.3308V2.056Z" fill="black"/>
<path d="M13.6494 0.125C14.8092 0.125 15.749 1.06583 15.749 2.22559V13.7744C15.749 14.9342 14.8092 15.875 13.6494 15.875H2.09961C0.939998 15.8748 0 14.9341 0 13.7744V2.22559C0 1.06593 0.939998 0.125172 2.09961 0.125H13.6494ZM7.7666 2.88672C5.76498 2.88686 4.14264 4.53283 4.14258 6.56348V6.63867C4.1426 8.2091 5.32036 9.59906 6.1084 10.5293C6.3369 10.799 6.53246 11.0303 6.65723 11.2158C7.10105 11.8762 7.33582 12.592 7.39746 12.8672C7.39749 13.0743 7.56247 13.242 7.7666 13.2422C7.97085 13.2422 8.13669 13.0744 8.13672 12.8672C8.19836 12.592 8.43216 11.8762 8.87598 11.2158C9.00075 11.0302 9.19714 10.7992 9.42578 10.5293C10.2138 9.59906 11.3916 8.20903 11.3916 6.63867V6.56348C11.3915 4.53274 9.76834 2.88672 7.7666 2.88672ZM7.7666 5.0625C8.54271 5.0625 9.17173 5.70096 9.17188 6.48828C9.17188 7.27573 8.5428 7.91406 7.7666 7.91406C6.99052 7.91392 6.36133 7.27564 6.36133 6.48828C6.36147 5.70105 6.99061 5.06264 7.7666 5.0625Z" fill="black"/>
</svg>
